# xmcd
#
# Track frame offsets:
#	150
#	14674
#	27613
#	44370
#	60116
#	69357
#	80051
#	91438
#	102547
#	111322
#	124815
#	136502
#	148106
#	159248
#	169641
#	184098
#	194862
#	210489
#	222261
#	233276
#	246269
#	257765
#	271178
#	283956
#	296521
#	309706
#	323971
#	336789
#
# Disc length: 4687 seconds
# Revision: 6
# Processed by: cddbd v1.5.2PL0 Copyright (c) Steve Scherf et al.
# Submitted via: dBpowerAMP V12.0
#
DISCID=a8124d1c
DTITLE=B.B. King - The Vintage Years
DYEAR=2002
DGENRE=Blues
TTITLE0=B.B. Boogie
TTITLE1=Mistreated Woman
TTITLE2=The Other Night Blues
TTITLE3=Walkin' and Cryin'
TTITLE4=My Baby's Gone
TTITLE5=Don't You Want a Man Like Me
TTITLE6=She's Dynamite
TTITLE7=B.B. Blues
TTITLE8=A New Way of Driving
TTITLE9=Questionnaire Blues
TTITLE10=Hard Workin' Woman
TTITLE11=She's a Mean Woman
TTITLE12=Pray for You
TTITLE13=That Ain't the Way to Do It
TTITLE14=She Don't Move Me No More
TTITLE15=Fine Lookin' Woman
TTITLE16=My Own Fault, Darlin' (Aka It's My Fault)
TTITLE17=Shake It Up and Go
TTITLE18=Gotta Find My Baby
TTITLE19=Some Day, Somewhere
TTITLE20=You Didn't Want Me
TTITLE21=Story from My Heart and Soul
TTITLE22=Boogie Woogie Woman
TTITLE23=Highway Bound
TTITLE24=Neighborhood Affair
TTITLE25=Why Did You Leave Me
TTITLE26=Praying to the Lord
TTITLE27=Please Help Me
EXTD=
EXTT0=
EXTT1=
EXTT2=
EXTT3=
EXTT4=
EXTT5=
EXTT6=
EXTT7=
EXTT8=
EXTT9=
EXTT10=
EXTT11=
EXTT12=
EXTT13=
EXTT14=
EXTT15=
EXTT16=
EXTT17=
EXTT18=
EXTT19=
EXTT20=
EXTT21=
EXTT22=
EXTT23=
EXTT24=
EXTT25=
EXTT26=
EXTT27=
PLAYORDER=
